<svg width="41" height="42" viewBox="0 0 41 42" fill="none" xmlns="http://www.w3.org/2000/svg">
<path d="M41 21.3831C41 19.6631 40.8604 18.408 40.5584 17.1064H20.9183V24.8694H32.4466C32.2142 26.7986 30.9591 29.7039 28.17 31.6562L28.1309 31.9161L34.3407 36.7268L34.7709 36.7697C38.7221 33.1206 41 27.7515 41 21.3831Z" fill="#4285F4"/>
<path d="M20.9184 41.8365C26.5663 41.8365 31.3078 39.977 34.771 36.7696L28.1701 31.6561C26.4037 32.8879 24.0329 33.7479 20.9184 33.7479C15.3867 33.7479 10.6918 30.0989 9.01813 25.0553L8.77282 25.0761L2.31577 30.0733L2.23132 30.308C5.6712 37.1413 12.737 41.8365 20.9184 41.8365Z" fill="#34A853"/>
<path d="M9.01805 25.0553C8.57645 23.7538 8.32088 22.3591 8.32088 20.9181C8.32088 19.477 8.57645 18.0825 8.99481 16.7809L8.98312 16.5037L2.44515 11.4263L2.23124 11.528C0.813501 14.3637 0 17.548 0 20.9181C0 24.2883 0.813501 27.4724 2.23124 30.3081L9.01805 25.0553Z" fill="#FBBC05"/>
<path d="M20.9188 8.08838C24.8467 8.08838 27.4964 9.78508 29.0072 11.203L34.9108 5.43877C31.2851 2.0686 26.5667 0 20.9188 0C12.7373 0 5.67156 4.69497 2.23169 11.5283L8.99527 16.7812C10.6921 11.7375 15.3871 8.08838 20.9188 8.08838Z" fill="#EB4335"/>
</svg>
